<svg width="26" height="28" viewBox="0 0 26 28" fill="none" xmlns="http://www.w3.org/2000/svg" xmlns:xlink="http://www.w3.org/1999/xlink">
<path d="M12,0C8.134,0 5,3.134 5,7C5,10.866 8.134,14 12,14C15.866,14 19,10.866 19,7C19,3.134 15.866,0 12,0ZM8,7C8,4.791 9.791,3 12,3C14.209,3 16,4.791 16,7C16,9.209 14.209,11 12,11C9.791,11 8,9.209 8,7Z" clip-rule="evenodd" fill-rule="evenodd" fill="#4A4A4A"/>
<path d="M22.968,22.454C20.755,18.47 16.557,16 12,16C7.443,16 3.245,18.47 1.032,22.454L0.159,24.026C-0.832,25.809 0.457,28 2.497,28L21.503,28C23.542,28 24.832,25.809 23.841,24.026L22.968,22.454ZM3.655,23.91C5.338,20.88 8.533,19 12,19C15.467,19 18.662,20.88 20.345,23.91L20.951,25L3.049,25L3.655,23.91Z" clip-rule="evenodd" fill-rule="evenodd" fill="#4A4A4A"/>
</svg>
