<svg width="88" height="72" viewBox="0 0 88 72" fill="none" xmlns="http://www.w3.org/2000/svg" xmlns:xlink="http://www.w3.org/1999/xlink">
<path d="M60.6,35.2C60.6,44.92 52.72,52.8 43,52.8C33.28,52.8 25.4,44.92 25.4,35.2C25.4,25.48 33.28,17.6 43,17.6C52.72,17.6 60.6,25.48 60.6,35.2ZM51.8,35.2C51.8,40.06 47.86,44 43,44C38.14,44 34.2,40.06 34.2,35.2C34.2,30.34 38.14,26.4 43,26.4C47.86,26.4 51.8,30.34 51.8,35.2Z" clip-rule="evenodd" fill-rule="evenodd" fill="#4A4A4A"/>
<path d="M43,0C28.471,0 17.489,7.215 10.28,14.855C6.671,18.68 3.929,22.687 2.07,26.133C1.141,27.856 0.406,29.485 -0.107,30.927C-0.581,32.259 -1,33.793 -1,35.2C-1,36.607 -0.581,38.141 -0.107,39.473C0.406,40.915 1.141,42.544 2.07,44.267C3.929,47.713 6.671,51.72 10.28,55.545C17.489,63.185 28.471,70.4 43,70.4C57.529,70.4 68.511,63.185 75.72,55.545C79.329,51.72 82.071,47.713 83.93,44.267C84.859,42.544 85.594,40.915 86.107,39.473C86.581,38.141 87,36.607 87,35.2C87,33.793 86.581,32.259 86.107,30.927C85.594,29.485 84.859,27.856 83.93,26.133C82.071,22.687 79.329,18.68 75.72,14.855C68.511,7.215 57.529,0 43,0ZM7.808,35.212L7.806,35.2L7.808,35.188C7.83,35.072 7.907,34.655 8.184,33.878C8.52,32.934 9.057,31.716 9.815,30.311C11.331,27.501 13.629,24.128 16.68,20.895C22.79,14.419 31.608,8.8 43,8.8C54.392,8.8 63.21,14.419 69.32,20.895C72.371,24.128 74.669,27.501 76.185,30.311C76.943,31.716 77.48,32.934 77.816,33.878C78.093,34.655 78.17,35.072 78.192,35.188L78.194,35.2L78.192,35.212C78.17,35.328 78.093,35.745 77.816,36.522C77.48,37.466 76.943,38.684 76.185,40.089C74.669,42.899 72.371,46.272 69.32,49.505C63.21,55.981 54.392,61.6 43,61.6C31.608,61.6 22.79,55.981 16.68,49.505C13.629,46.272 11.331,42.899 9.815,40.089C9.057,38.684 8.52,37.466 8.184,36.522C7.907,35.745 7.83,35.328 7.808,35.212Z" clip-rule="evenodd" fill-rule="evenodd" fill="#4A4A4A"/>
</svg>
