<svg width="28" height="32" viewBox="0 0 28 32" fill="none" xmlns="http://www.w3.org/2000/svg" xmlns:xlink="http://www.w3.org/1999/xlink">
<path d="M19,16C19,18.761 16.761,21 14,21C11.239,21 9,18.761 9,16C9,13.239 11.239,11 14,11C16.761,11 19,13.239 19,16ZM16,16C16,17.105 15.105,18 14,18C12.895,18 12,17.105 12,16C12,14.895 12.895,14 14,14C15.105,14 16,14.895 16,16Z" clip-rule="evenodd" fill-rule="evenodd" fill="#4A4A4A"/>
<path d="M12.753,1C10.902,1 9.401,2.501 9.401,4.352L9.401,5.727C9.401,5.84 9.317,6.068 9.007,6.23C8.699,6.391 8.4,6.566 8.111,6.754C7.816,6.947 7.573,6.907 7.474,6.85L6.275,6.157C4.671,5.231 2.621,5.781 1.696,7.384L0.449,9.543C-0.476,11.146 0.073,13.196 1.676,14.122L2.971,14.87C3.068,14.926 3.221,15.109 3.21,15.452C3.206,15.569 3.204,15.686 3.204,15.804C3.204,15.997 3.209,16.189 3.219,16.379C3.238,16.731 3.082,16.921 2.983,16.978L1.676,17.732C0.073,18.658 -0.476,20.708 0.449,22.311L1.696,24.47C2.621,26.074 4.671,26.623 6.275,25.697L7.676,24.888C7.773,24.832 8.008,24.792 8.3,24.974C8.53,25.117 8.766,25.252 9.007,25.378C9.317,25.54 9.401,25.767 9.401,25.88L9.401,27.502C9.401,29.354 10.902,30.854 12.753,30.854L15.246,30.854C17.098,30.854 18.598,29.354 18.598,27.502L18.598,25.88C18.598,25.767 18.683,25.54 18.993,25.378C19.234,25.252 19.47,25.117 19.7,24.974C19.992,24.792 20.227,24.833 20.324,24.889L21.725,25.697C23.328,26.623 25.378,26.074 26.304,24.47L27.55,22.311C28.476,20.708 27.927,18.658 26.324,17.732L25.017,16.978C24.918,16.921 24.762,16.731 24.781,16.379C24.791,16.189 24.796,15.997 24.796,15.804C24.796,15.686 24.794,15.569 24.79,15.451C24.779,15.109 24.932,14.926 25.029,14.87L26.324,14.122C27.927,13.196 28.476,11.146 27.55,9.543L26.304,7.384C25.378,5.781 23.328,5.231 21.725,6.157L20.525,6.85C20.427,6.907 20.184,6.947 19.889,6.754C19.599,6.566 19.301,6.391 18.993,6.23C18.683,6.068 18.598,5.84 18.598,5.727L18.598,4.352C18.598,2.501 17.098,1 15.246,1L12.753,1ZM12.401,4.352C12.401,4.158 12.559,4 12.753,4L15.246,4C15.441,4 15.598,4.158 15.598,4.352L15.598,5.727C15.598,7.184 16.522,8.324 17.604,8.889C17.826,9.005 18.041,9.131 18.25,9.268C19.284,9.941 20.75,10.184 22.025,9.448L23.225,8.755C23.393,8.658 23.609,8.716 23.706,8.884L24.952,11.043C25.05,11.212 24.992,11.427 24.824,11.524L23.529,12.272C22.282,12.991 21.753,14.339 21.792,15.548C21.794,15.633 21.796,15.718 21.796,15.804C21.796,15.944 21.792,16.083 21.785,16.222C21.72,17.453 22.244,18.841 23.517,19.576L24.824,20.33C24.992,20.428 25.05,20.643 24.952,20.811L23.706,22.97C23.609,23.139 23.393,23.196 23.225,23.099L21.824,22.29C20.576,21.57 19.141,21.787 18.114,22.427C17.948,22.531 17.778,22.628 17.604,22.719C16.522,23.284 15.598,24.423 15.598,25.88L15.598,27.502C15.598,27.697 15.441,27.854 15.246,27.854L12.753,27.854C12.559,27.854 12.401,27.697 12.401,27.502L12.401,25.88C12.401,24.423 11.477,23.284 10.396,22.719C10.222,22.628 10.052,22.53 9.886,22.427C8.859,21.787 7.424,21.569 6.176,22.29L4.775,23.099C4.606,23.196 4.391,23.139 4.294,22.97L3.047,20.811C2.95,20.643 3.008,20.428 3.176,20.33L4.483,19.576C5.756,18.841 6.28,17.453 6.215,16.222C6.208,16.083 6.204,15.944 6.204,15.804C6.204,15.718 6.206,15.633 6.208,15.548C6.247,14.339 5.717,12.991 4.471,12.272L3.176,11.524C3.008,11.427 2.95,11.212 3.047,11.043L4.294,8.884C4.391,8.716 4.606,8.658 4.775,8.755L5.974,9.448C7.25,10.184 8.715,9.942 9.749,9.268C9.958,9.131 10.174,9.005 10.396,8.889C11.477,8.324 12.401,7.184 12.401,5.727L12.401,4.352Z" clip-rule="evenodd" fill-rule="evenodd" fill="#4A4A4A"/>
</svg>
