<svg width="28" height="28" viewBox="0 0 28 28" fill="none" xmlns="http://www.w3.org/2000/svg" xmlns:xlink="http://www.w3.org/1999/xlink">
<path d="M14,7.5C14.828,7.5 15.5,8.172 15.5,9L15.5,16C15.5,16.828 14.828,17.5 14,17.5C13.171,17.5 12.5,16.828 12.5,16L12.5,9C12.5,8.172 13.171,7.5 14,7.5Z" fill="#4A4A4A"/>
<path d="M16,21C16,22.105 15.105,23 14,23C12.895,23 12,22.105 12,21C12,19.895 12.895,19 14,19C15.105,19 16,19.895 16,21Z" fill="#4A4A4A"/>
<path d="M14,1C11.909,1 10.432,2.405 9.695,3.893C9.311,4.669 7.52,8.088 5.686,11.587L5.631,11.693C3.846,15.099 2.034,18.555 1.614,19.404C0.87,20.907 0.659,22.904 1.799,24.632C2.938,26.358 4.884,27 6.727,27L21.273,27C23.115,27 25.062,26.358 26.201,24.632C27.341,22.904 27.13,20.907 26.386,19.404C25.966,18.557 24.16,15.11 22.378,11.71L22.314,11.587C20.48,8.088 18.689,4.669 18.305,3.894C17.568,2.405 16.091,1 14,1ZM12.384,5.225C13.192,3.592 14.808,3.592 15.616,5.225C16.02,6.041 17.84,9.514 19.659,12.985C21.477,16.452 23.293,19.919 23.697,20.735C24.505,22.367 23.697,24 21.273,24L6.727,24C4.303,24 3.495,22.367 4.303,20.735C4.708,19.917 6.529,16.441 8.35,12.968C10.166,9.502 11.98,6.04 12.384,5.225Z" clip-rule="evenodd" fill-rule="evenodd" fill="#4A4A4A"/>
</svg>
