<svg width="26" height="28" viewBox="0 0 26 28" fill="none" xmlns="http://www.w3.org/2000/svg" xmlns:xlink="http://www.w3.org/1999/xlink">
<path d="M7.5,1C7.5,0.172 6.828,-0.5 6,-0.5C5.172,-0.5 4.5,0.172 4.5,1L4.5,1.813C4.008,1.928 3.543,2.089 3.095,2.317C1.684,3.037 0.537,4.184 -0.183,5.595C-0.635,6.484 -0.824,7.444 -0.913,8.537C-1,9.599 -1,10.91 -1,12.536L-1,15.464C-1,17.09 -1,18.401 -0.913,19.463C-0.824,20.556 -0.635,21.516 -0.183,22.405C0.537,23.816 1.684,24.963 3.095,25.683C3.984,26.135 4.944,26.324 6.037,26.413C7.099,26.5 8.41,26.5 10.036,26.5L16.803,26.5C17.447,26.5 17.886,26.5 18.273,26.46C21.804,26.094 24.594,23.304 24.96,19.773C25,19.386 25,18.947 25,18.303L25,12.536C25,10.91 25,9.599 24.913,8.537C24.824,7.444 24.635,6.484 24.183,5.595C23.463,4.184 22.316,3.037 20.905,2.317C20.457,2.089 19.992,1.928 19.5,1.813L19.5,1C19.5,0.172 18.828,-0.5 18,-0.5C17.172,-0.5 16.5,0.172 16.5,1L16.5,1.517C15.753,1.5 14.912,1.5 13.964,1.5L10.036,1.5C9.088,1.5 8.247,1.5 7.5,1.517L7.5,1ZM4.457,4.99C4.852,4.789 5.374,4.651 6.281,4.577C7.207,4.501 8.395,4.5 10.1,4.5L13.9,4.5C15.605,4.5 16.793,4.501 17.719,4.577C18.626,4.651 19.148,4.789 19.543,4.99C20.39,5.422 21.078,6.11 21.51,6.957C21.711,7.352 21.849,7.874 21.923,8.781C21.953,9.142 21.971,9.544 21.982,10L2.018,10C2.029,9.544 2.047,9.142 2.077,8.781C2.151,7.874 2.289,7.352 2.49,6.957C2.922,6.11 3.61,5.422 4.457,4.99ZM2,13L2,15.4C2,17.105 2.001,18.293 2.077,19.219C2.151,20.126 2.289,20.648 2.49,21.043C2.922,21.89 3.61,22.578 4.457,23.01C4.852,23.211 5.374,23.349 6.281,23.423C7.207,23.499 8.395,23.5 10.1,23.5L16.711,23.5C17.481,23.5 17.752,23.498 17.964,23.476C20.082,23.257 21.757,21.582 21.976,19.464C21.998,19.252 22,18.981 22,18.211L22,13L2,13Z" clip-rule="evenodd" fill-rule="evenodd" fill="#4A4A4A"/>
</svg>
