<svg width="74" height="74" viewBox="0 0 74 74" fill="none" xmlns="http://www.w3.org/2000/svg" xmlns:xlink="http://www.w3.org/1999/xlink">
<path d="M19.063,-0.4C11.429,-0.4 4.948,5.192 3.829,12.743L0.129,37.72C-0.223,40.097 -0.4,42.497 -0.4,44.901L-0.4,54.2C-0.4,64.252 7.748,72.4 17.8,72.4L54.2,72.4C64.252,72.4 72.4,64.252 72.4,54.2L72.4,44.901C72.4,42.497 72.223,40.097 71.871,37.72L68.171,12.743C67.052,5.192 60.571,-0.4 52.937,-0.4L19.063,-0.4ZM12.139,13.974C12.647,10.542 15.593,8 19.063,8L52.937,8C56.407,8 59.353,10.542 59.861,13.974L63.125,36L49.218,36C46.205,36 43.53,37.928 42.577,40.786L41.692,43.443C41.501,44.014 40.966,44.4 40.364,44.4L31.636,44.4C31.034,44.4 30.499,44.014 30.308,43.443L29.423,40.786C28.47,37.928 25.795,36 22.782,36L8.875,36L12.139,13.974ZM8.003,44.4C8.001,44.567 8,44.734 8,44.901L8,54.2C8,59.612 12.388,64 17.8,64L54.2,64C59.612,64 64,59.612 64,54.2L64,44.901C64,44.734 63.999,44.567 63.997,44.4L50.227,44.4L49.661,46.099C48.327,50.101 44.582,52.8 40.364,52.8L31.636,52.8C27.418,52.8 23.673,50.101 22.339,46.099L21.773,44.4L8.003,44.4Z" clip-rule="evenodd" fill-rule="evenodd" fill="#4A4A4A"/>
</svg>
